<?xml version="1.0" encoding="UTF-8"?>
<svg id="Camada_1" data-name="Camada 1" xmlns="http://www.w3.org/2000/svg" viewBox="0 0 354.34 354.48">
  <defs>
    <style>
      .cls-1 {
        fill: #ededed;
      }
    </style>
  </defs>
  <path class="cls-1" d="M241.67,30.46l7.34-15.11,11.25,5.46-1.53,3.15-7.5-3.64-1.49,3.06,6.28,3.05-1.47,3.02-6.28-3.05-2.85,5.88-3.74-1.82Z"/>
  <path class="cls-1" d="M251.72,35.2l13.77-11.36,3.68,2.18-3.37,17.54-3.76-2.23.7-3.11-5.05-3-2.38,2.12-3.6-2.14ZM260.05,33.15l3.39,2.02.98-4.14.65-2.38-.04-.02c-.74.73-1.34,1.29-1.8,1.69l-3.19,2.84Z"/>
  <path class="cls-1" d="M266.44,43.96l10.1-13.43,4.47,3.36-2.79,7.11-1.53,3.64.04.03c1.46-1.21,2.48-2.04,3.05-2.5l6.08-4.63,4.51,3.39-10.1,13.43-3.04-2.29,5.09-6.76,2.08-2.64-.04-.03c-1.32,1.1-2.15,1.78-2.5,2.03l-7.16,5.49-2.74-2.06,3.3-8.37,1.27-2.98-.04-.03c-1.05,1.47-1.71,2.38-1.98,2.75l-5.07,6.74-2.99-2.25Z"/>
  <path class="cls-1" d="M293.02,63.51c-2.23.15-4.26-.64-6.08-2.36-1.82-1.72-2.71-3.7-2.68-5.94.03-2.23.93-4.28,2.68-6.13,1.75-1.85,3.75-2.86,5.98-3.02,2.23-.16,4.25.63,6.07,2.35,1.82,1.72,2.72,3.7,2.69,5.94-.03,2.24-.92,4.29-2.67,6.14-1.75,1.86-3.75,2.86-5.98,3.01ZM289.28,58.71c.96.91,2.03,1.24,3.22.99,1.19-.24,2.33-.95,3.43-2.11,1.1-1.16,1.74-2.34,1.92-3.55.18-1.21-.2-2.26-1.16-3.17-.95-.89-2.02-1.22-3.23-.98s-2.36.94-3.46,2.1c-1.09,1.15-1.72,2.33-1.89,3.55-.17,1.22.21,2.27,1.16,3.17Z"/>
  <path class="cls-1" d="M298.1,72.84c-1.49-1.72-2.3-3.4-2.44-5.06s.47-3.1,1.83-4.33l2.74,3.16c-1.09,1.18-.98,2.53.34,4.06.49.57,1.02.96,1.58,1.16.56.21,1.07.12,1.52-.27.31-.27.46-.61.45-1.04,0-.43-.08-.8-.22-1.13-.14-.33-.42-.92-.86-1.79-.02-.04-.03-.08-.03-.09,0-.02-.01-.04-.03-.07-.02-.03-.03-.06-.05-.08-.34-.66-.61-1.21-.82-1.64-.2-.44-.39-.97-.57-1.59-.18-.62-.25-1.17-.23-1.65.02-.48.16-.98.41-1.52.25-.54.63-1.03,1.14-1.47,1.3-1.13,2.68-1.51,4.14-1.14,1.46.37,2.84,1.3,4.14,2.8,1.25,1.44,1.94,2.91,2.08,4.41.13,1.49-.42,2.82-1.64,3.99l-2.66-3.07c.43-.48.63-1.01.59-1.6-.04-.59-.32-1.17-.83-1.77-.47-.54-.96-.89-1.47-1.04-.51-.15-.95-.07-1.3.24-.4.35-.52.8-.36,1.37s.61,1.51,1.32,2.83c.44.84.77,1.56,1,2.15.23.59.4,1.24.51,1.97.11.72.03,1.4-.24,2.04-.27.64-.73,1.24-1.38,1.8-1.29,1.12-2.73,1.51-4.31,1.17-1.58-.34-3.03-1.27-4.34-2.79Z"/>
  <path class="cls-1" d="M313.31,88.77c-2.22-.29-4.05-1.46-5.5-3.51-1.45-2.05-1.93-4.17-1.46-6.35.47-2.18,1.75-4.01,3.84-5.48s4.24-2.06,6.45-1.78c2.22.29,4.05,1.46,5.49,3.5s1.93,4.17,1.46,6.36c-.47,2.19-1.75,4.02-3.83,5.49s-4.24,2.06-6.46,1.77ZM310.59,83.33c.76,1.08,1.75,1.61,2.96,1.61s2.48-.47,3.78-1.39,2.17-1.96,2.58-3.1c.42-1.15.25-2.26-.51-3.33-.75-1.06-1.74-1.6-2.97-1.6-1.23,0-2.5.45-3.8,1.37-1.29.91-2.14,1.95-2.55,3.11-.41,1.16-.24,2.27.51,3.33Z"/>
  <path class="cls-1" d="M312.84,92.07l3.37-2.06,2.1,3.43-3.37,2.06-2.1-3.43Z"/>
  <path class="cls-1" d="M326.64,101.43c-1.46-.44-2.57-1.36-3.32-2.75-.75-1.39-.91-2.83-.47-4.3.43-1.47,1.37-2.59,2.8-3.37,1.43-.77,2.89-.94,4.35-.49,1.47.45,2.58,1.36,3.33,2.76.75,1.39.91,2.82.47,4.29-.44,1.46-1.38,2.58-2.81,3.36-1.43.77-2.88.94-4.35.5ZM323.77,94.74c-.38,1.19-.26,2.36.35,3.51.62,1.14,1.53,1.88,2.73,2.21,1.2.33,2.41.17,3.62-.48,1.2-.65,1.99-1.56,2.38-2.75.38-1.19.27-2.35-.35-3.5-.62-1.15-1.53-1.89-2.73-2.22s-2.41-.18-3.61.46c-1.21.65-2.01,1.58-2.39,2.77ZM324.53,95.19l5.3-2.85,1.4,2.61c.3.57.42,1.12.36,1.65-.07.54-.35.94-.85,1.2-.63.34-1.21.27-1.74-.21l-.04.02c.09.47-.08.88-.5,1.26-.15.12-.34.25-.57.38-.23.14-.4.26-.51.36-.12.1-.17.18-.17.25l-.12.07-.83-1.53c0-.06.06-.13.16-.22s.26-.21.47-.35c.21-.14.37-.25.47-.32.4-.29.47-.66.23-1.11l-.35-.64-1.86,1-.85-1.57ZM328.34,95.17l.42.79c.25.47.57.6.94.4.37-.2.43-.54.18-1l-.42-.79-1.12.6Z"/>
  <path class="cls-1" d="M332.57,121.04c-.89-.41-1.51-1.06-1.85-1.95s-.31-1.79.09-2.69c.4-.9,1.05-1.52,1.96-1.86s1.81-.31,2.7.09c.89.41,1.51,1.06,1.85,1.95s.31,1.79-.09,2.68c-.4.9-1.05,1.52-1.96,1.86-.91.34-1.81.31-2.7-.09Z"/>
  <path class="cls-1" d="M331.99,135.64l16.38-3.75,2.79,12.19-3.41.78-1.86-8.13-3.32.76,1.56,6.8-3.28.75-1.56-6.8-6.37,1.46-.93-4.05Z"/>
  <path class="cls-1" d="M334.6,146.45l17.48,3.62.6,4.23-15.78,8.36-.61-4.33,2.86-1.4-.83-5.82-3.14-.53-.59-4.14ZM341.41,151.65l.55,3.91,3.85-1.83,2.26-.99v-.05c-1.04-.12-1.85-.24-2.45-.34l-4.21-.71Z"/>
  <path class="cls-1" d="M336.98,163.4l16.79-.54.18,5.59-7.29,2.28-3.8,1.09v.05c1.86.38,3.15.65,3.86.82l7.42,1.83.18,5.64-16.79.54-.12-3.8,8.46-.27,3.36-.04v-.05c-1.69-.34-2.74-.56-3.15-.67l-8.77-2.14-.11-3.43,8.59-2.68,3.12-.88v-.05c-1.8.11-2.93.17-3.38.18l-8.43.27-.12-3.73Z"/>
  <path class="cls-1" d="M338.42,196.35c-1.52-1.64-2.18-3.72-1.98-6.22s1.18-4.44,2.94-5.81,3.91-1.96,6.46-1.76c2.54.2,4.58,1.12,6.1,2.76,1.52,1.64,2.18,3.71,1.98,6.2-.2,2.5-1.18,4.44-2.94,5.83-1.76,1.38-3.91,1.98-6.46,1.77-2.55-.2-4.58-1.13-6.1-2.77ZM339.81,190.43c-.1,1.31.31,2.35,1.25,3.13s2.2,1.22,3.79,1.35c1.59.13,2.92-.12,3.97-.73s1.63-1.58,1.74-2.89c.1-1.3-.32-2.34-1.26-3.13-.94-.79-2.21-1.25-3.8-1.38-1.58-.12-2.89.13-3.95.76-1.06.63-1.64,1.59-1.74,2.89Z"/>
  <path class="cls-1" d="M334.35,206.19c.4-2.24,1.21-3.92,2.41-5.07,1.2-1.14,2.71-1.58,4.52-1.29l-.75,4.12c-1.6-.12-2.58.82-2.94,2.81-.13.74-.11,1.39.09,1.96.19.57.58.9,1.17,1.01.4.07.76-.03,1.09-.3.33-.27.58-.57.74-.88.17-.31.45-.91.85-1.79.02-.04.04-.07.05-.09s.02-.04.04-.07c.01-.03.02-.06.03-.09.3-.68.55-1.23.77-1.66.21-.43.51-.91.88-1.44s.75-.93,1.14-1.21c.38-.28.87-.49,1.44-.63.58-.14,1.19-.15,1.86-.03,1.7.31,2.86,1.14,3.49,2.51.63,1.36.77,3.02.41,4.98-.34,1.88-1.05,3.34-2.13,4.38-1.08,1.04-2.46,1.45-4.14,1.22l.72-4c.65.04,1.18-.14,1.62-.54.43-.4.72-.98.86-1.76.13-.71.09-1.31-.12-1.8s-.54-.78-1-.86c-.52-.09-.95.1-1.29.58s-.79,1.42-1.38,2.81c-.38.87-.73,1.58-1.04,2.13-.31.55-.72,1.09-1.21,1.63-.5.54-1.08.9-1.74,1.09-.66.19-1.42.21-2.27.06-1.68-.3-2.88-1.18-3.61-2.62-.73-1.44-.91-3.15-.55-5.13Z"/>
  <path class="cls-1" d="M331.47,227.99c-1.16-1.92-1.4-4.08-.71-6.49.69-2.41,2.04-4.11,4.04-5.11,2-1,4.22-1.15,6.68-.44s4.26,2.01,5.43,3.92,1.4,4.07.71,6.47c-.69,2.41-2.04,4.12-4.04,5.12-2,1.01-4.23,1.16-6.68.45-2.45-.7-4.26-2.01-5.42-3.93ZM334.01,222.46c-.36,1.26-.16,2.37.6,3.31.76.94,1.91,1.64,3.45,2.08,1.54.44,2.88.46,4.04.07,1.16-.39,1.92-1.22,2.28-2.49.36-1.25.15-2.36-.61-3.32-.77-.96-1.92-1.66-3.45-2.1-1.52-.44-2.86-.45-4.02-.04-1.16.41-1.92,1.24-2.28,2.49Z"/>
  <path class="cls-1" d="M328.61,229.69l3.71,1.34-1.36,3.78-3.71-1.34,1.36-3.78Z"/>
  <path class="cls-1" d="M329.94,246.31c-.57-1.42-.55-2.85.06-4.31s1.64-2.48,3.06-3.06,2.88-.55,4.38.08c1.5.64,2.54,1.67,3.11,3.09.57,1.42.55,2.86-.07,4.32s-1.63,2.47-3.05,3.05-2.88.54-4.38-.09c-1.5-.64-2.54-1.66-3.11-3.08ZM333.36,239.88c-1.17.45-2.01,1.27-2.51,2.47-.51,1.2-.51,2.37-.02,3.51.49,1.14,1.38,1.99,2.64,2.52,1.25.53,2.46.58,3.63.13,1.17-.44,2-1.26,2.51-2.46.51-1.2.51-2.37.02-3.52-.49-1.15-1.36-1.99-2.62-2.52-1.27-.54-2.49-.58-3.66-.13ZM333.49,240.76l5.54,2.35-1.15,2.73c-.25.59-.61,1.03-1.07,1.31-.46.28-.95.31-1.47.09-.66-.28-.97-.78-.93-1.49l-.04-.02c-.31.36-.74.5-1.29.4-.19-.04-.4-.11-.66-.2-.25-.09-.45-.15-.6-.18-.15-.03-.25-.02-.3.02l-.13-.05.68-1.6s.14-.04.27-.01c.13.02.32.07.56.15s.42.13.54.17c.47.13.81-.04,1.01-.52l.28-.67-1.95-.83.7-1.64ZM335.88,243.72l-.35.82c-.21.49-.12.82.27.98.39.17.69,0,.9-.49l.35-.82-1.17-.5Z"/>
  <path class="cls-1" d="M318.35,263.21c-.24-.95-.12-1.84.37-2.66.48-.82,1.2-1.36,2.15-1.61.95-.25,1.84-.13,2.68.36.84.49,1.38,1.21,1.62,2.17.24.95.12,1.84-.37,2.66-.48.82-1.2,1.36-2.15,1.61-.95.25-1.84.13-2.68-.36-.84-.49-1.38-1.21-1.62-2.17Z"/>
  <path class="cls-1" d="M306.61,271.89l13.19,10.41-7.75,9.81-2.75-2.17,5.17-6.55-2.67-2.11-4.33,5.48-2.64-2.08,4.33-5.48-5.13-4.05,2.58-3.27Z"/>
  <path class="cls-1" d="M299.81,280.71l8.15,15.88-2.92,3.12-16.42-7.04,2.98-3.19,2.89,1.35,4.01-4.29-1.56-2.77,2.86-3.06ZM300.04,289.28l-2.7,2.88,3.84,1.85,2.18,1.14.03-.04c-.55-.88-.97-1.58-1.27-2.12l-2.09-3.72Z"/>
  <path class="cls-1" d="M288.11,293.21l10.96,12.74-4.24,3.65-6.35-4.24-3.23-2.28-.04.03c.87,1.69,1.47,2.86,1.79,3.52l3.23,6.92-4.28,3.68-10.96-12.74,2.89-2.48,5.52,6.41,2.14,2.59.04-.03c-.8-1.53-1.28-2.48-1.45-2.88l-3.84-8.17,2.6-2.24,7.47,5.01,2.64,1.88.04-.03c-1.21-1.33-1.96-2.17-2.26-2.52l-5.5-6.39,2.83-2.44Z"/>
  <path class="cls-1" d="M263.36,314.97c.33-2.21,1.53-4.03,3.6-5.44,2.07-1.41,4.2-1.86,6.37-1.35s3.98,1.82,5.42,3.93c1.44,2.11,1.99,4.27,1.67,6.48-.32,2.21-1.52,4.02-3.59,5.43-2.07,1.41-4.2,1.86-6.38,1.36-2.18-.5-3.99-1.81-5.43-3.92-1.44-2.11-1.99-4.27-1.66-6.49ZM268.85,312.34c-1.09.74-1.64,1.72-1.66,2.93-.02,1.21.43,2.48,1.33,3.8.9,1.32,1.92,2.2,3.06,2.64s2.25.28,3.34-.46c1.08-.73,1.62-1.71,1.65-2.94.03-1.23-.41-2.51-1.31-3.83-.89-1.31-1.91-2.18-3.07-2.6-1.15-.43-2.27-.28-3.34.46Z"/>
  <path class="cls-1" d="M253.14,317.96c2-1.08,3.82-1.52,5.46-1.3,1.64.22,2.92,1.12,3.84,2.71l-3.67,2c-.91-1.32-2.26-1.5-4.04-.53-.66.36-1.15.79-1.47,1.3-.32.5-.34,1.02-.06,1.54.19.36.5.58.92.66.42.08.8.09,1.15.03s.99-.22,1.93-.46c.05,0,.08-.01.1-.01.02,0,.04,0,.07-.01.03,0,.06-.02.09-.03.71-.19,1.31-.34,1.78-.45.47-.1,1.03-.18,1.67-.22.65-.04,1.2,0,1.66.13.46.12.93.37,1.4.73.47.36.87.83,1.19,1.43.82,1.51.9,2.94.23,4.29-.67,1.34-1.88,2.49-3.62,3.44-1.68.91-3.26,1.27-4.75,1.08-1.49-.19-2.67-1.01-3.54-2.46l3.57-1.94c.38.53.85.83,1.44.92.58.08,1.22-.06,1.9-.43.63-.34,1.08-.75,1.33-1.22s.27-.91.04-1.32c-.25-.47-.67-.68-1.26-.64-.58.04-1.6.27-3.05.68-.92.25-1.69.42-2.31.52s-1.3.12-2.03.08c-.73-.05-1.38-.27-1.94-.67-.56-.4-1.05-.97-1.46-1.73-.82-1.5-.89-2.99-.22-4.46.67-1.47,1.89-2.68,3.65-3.64Z"/>
  <path class="cls-1" d="M234.31,329.39c.76-2.11,2.3-3.64,4.61-4.61,2.31-.97,4.48-.99,6.51-.06s3.54,2.57,4.53,4.93,1.1,4.58.35,6.69c-.76,2.1-2.29,3.64-4.6,4.61-2.31.97-4.49.99-6.52.06-2.04-.93-3.55-2.57-4.54-4.92-.99-2.35-1.1-4.58-.34-6.69ZM240.21,327.91c-1.21.51-1.95,1.36-2.21,2.54-.26,1.19-.08,2.52.54,3.99.62,1.47,1.44,2.54,2.47,3.19,1.03.65,2.15.73,3.37.22,1.2-.5,1.93-1.36,2.2-2.56.27-1.2.09-2.54-.52-4.01-.61-1.46-1.44-2.51-2.49-3.16-1.04-.65-2.17-.72-3.37-.22Z"/>
  <path class="cls-1" d="M231.22,328.22l1.29,3.73-3.8,1.31-1.29-3.73,3.8-1.31Z"/>
  <path class="cls-1" d="M219.1,339.67c.74-1.33,1.88-2.22,3.4-2.65s2.95-.28,4.3.46,2.24,1.9,2.68,3.46.29,3.02-.46,4.36c-.75,1.34-1.89,2.22-3.41,2.65-1.52.43-2.95.28-4.29-.47-1.34-.74-2.23-1.9-2.67-3.47s-.29-3.02.45-4.35ZM226.25,338.31c-1.08-.63-2.25-.77-3.5-.41s-2.17,1.08-2.75,2.19c-.58,1.1-.69,2.32-.31,3.64.37,1.31,1.1,2.28,2.17,2.91s2.24.77,3.49.41,2.17-1.08,2.76-2.19c.59-1.1.7-2.31.33-3.62-.38-1.33-1.11-2.3-2.19-2.93ZM225.64,338.96l1.64,5.79-2.85.81c-.62.17-1.18.17-1.69,0-.51-.18-.84-.54-.99-1.09-.2-.69,0-1.25.58-1.66v-.04c-.49-.01-.86-.26-1.13-.76-.08-.17-.17-.38-.25-.64s-.17-.45-.24-.58c-.07-.14-.14-.21-.21-.22l-.04-.14,1.67-.48c.05.02.11.09.18.21.07.12.14.3.24.53.09.23.16.41.21.53.19.45.54.6,1.04.46l.7-.2-.58-2.03,1.72-.49ZM224.85,342.68l-.86.24c-.51.15-.71.42-.59.83.12.41.43.54.94.39l.86-.24-.35-1.22Z"/>
  <path class="cls-1" d="M198.66,341.23c.59-.78,1.36-1.24,2.3-1.38.95-.14,1.81.08,2.6.67.79.58,1.25,1.35,1.39,2.31.14.96-.08,1.83-.68,2.62-.59.78-1.36,1.24-2.3,1.38-.95.14-1.81-.08-2.6-.67-.79-.58-1.25-1.35-1.39-2.31-.14-.96.08-1.83.68-2.62Z"/>
  <path class="cls-1" d="M184.52,337.48l.27,16.8-12.5.2-.06-3.5,8.34-.13-.05-3.41-6.98.11-.05-3.36,6.98-.11-.11-6.53,4.16-.07Z"/>
  <path class="cls-1" d="M173.41,337.75l-7.25,16.32-4.27-.31-4.82-17.2,4.36.32.76,3.1,5.86.43,1.18-2.95,4.17.31ZM166.88,343.3l-3.94-.29.97,4.15.48,2.42h.05c.34-.98.62-1.75.85-2.31l1.59-3.96Z"/>
  <path class="cls-1" d="M156.34,336.49l-3.04,16.52-5.5-1.01-.68-7.6-.25-3.94h-.05c-.77,1.73-1.31,2.93-1.62,3.59l-3.37,6.86-5.55-1.02,3.05-16.52,3.74.69-1.53,8.32-.68,3.29h.05c.69-1.57,1.13-2.55,1.33-2.92l3.96-8.11,3.37.62.79,8.96.19,3.24h.05c.28-1.77.46-2.89.54-3.33l1.53-8.3,3.67.68Z"/>
  <path class="cls-1" d="M123.87,330.85c1.93-1.13,4.1-1.33,6.5-.6s4.08,2.1,5.05,4.12,1.08,4.24.33,6.69-2.08,4.23-4.01,5.36c-1.93,1.13-4.09,1.33-6.49.6-2.4-.73-4.08-2.11-5.06-4.12s-1.09-4.25-.34-6.69c.75-2.44,2.08-4.23,4.02-5.36ZM129.35,333.48c-1.26-.38-2.37-.2-3.32.55-.96.75-1.67,1.89-2.13,3.42-.47,1.53-.51,2.87-.14,4.04.38,1.16,1.19,1.94,2.45,2.32,1.24.38,2.35.19,3.33-.56.97-.75,1.69-1.89,2.16-3.42.46-1.51.5-2.85.11-4.02-.39-1.17-1.21-1.94-2.45-2.32Z"/>
  <path class="cls-1" d="M115.15,324.75c2.1.88,3.57,2.03,4.43,3.45.86,1.42.95,2.99.29,4.69l-3.86-1.62c.46-1.54-.24-2.7-2.11-3.48-.69-.29-1.34-.4-1.93-.34-.6.06-1.01.37-1.24.92-.16.38-.14.75.06,1.13.2.38.43.69.7.92s.79.64,1.57,1.22c.04.03.06.06.07.07.01.01.03.03.06.05.03.02.05.04.08.05.6.44,1.08.81,1.46,1.11.38.3.78.69,1.22,1.17.44.48.75.94.94,1.37.19.44.29.95.31,1.54.02.59-.11,1.2-.37,1.82-.67,1.59-1.73,2.54-3.2,2.86-1.47.32-3.12.1-4.95-.67-1.76-.74-3.04-1.75-3.82-3.03-.78-1.28-.88-2.71-.3-4.3l3.75,1.57c-.18.62-.12,1.19.18,1.69.3.51.81.91,1.53,1.21.66.28,1.26.37,1.78.28.52-.09.88-.36,1.06-.79.21-.49.11-.95-.29-1.38-.4-.43-1.21-1.08-2.44-1.95-.77-.56-1.39-1.05-1.85-1.48-.47-.42-.91-.94-1.33-1.54-.42-.6-.65-1.25-.69-1.93-.04-.69.1-1.43.44-2.23.66-1.58,1.77-2.56,3.34-2.96s3.28-.21,5.13.57Z"/>
  <path class="cls-1" d="M94.44,317.21c2.12-.72,4.28-.48,6.49.71,2.2,1.2,3.58,2.88,4.12,5.04s.21,4.37-1.01,6.62c-1.22,2.24-2.88,3.73-5,4.45-2.11.72-4.27.49-6.47-.71-2.2-1.2-3.58-2.88-4.13-5.05s-.22-4.38,1-6.62c1.22-2.24,2.89-3.73,5.01-4.45ZM99.29,320.88c-1.16-.63-2.28-.67-3.37-.13-1.09.54-2.01,1.51-2.77,2.92-.76,1.41-1.08,2.71-.94,3.93.13,1.21.78,2.13,1.94,2.76,1.14.62,2.27.66,3.37.12s2.04-1.51,2.8-2.92c.75-1.39,1.06-2.7.91-3.92-.15-1.22-.79-2.14-1.94-2.76Z"/>
  <path class="cls-1" d="M93.4,314.05l-2.11,3.34-3.4-2.14,2.11-3.34,3.4,2.14Z"/>
  <path class="cls-1" d="M76.91,311.8c1.51-.26,2.91.07,4.2.99,1.29.92,2.07,2.13,2.33,3.64.26,1.51-.08,2.93-1.02,4.26-.94,1.33-2.17,2.12-3.68,2.37-1.51.25-2.92-.08-4.21-1-1.29-.92-2.06-2.13-2.32-3.63s.09-2.93,1.03-4.25c.94-1.33,2.17-2.12,3.67-2.38ZM82.45,316.52c-.19-1.24-.81-2.23-1.87-2.99-1.06-.75-2.2-1.01-3.43-.77-1.22.24-2.24.92-3.03,2.04-.79,1.11-1.09,2.28-.91,3.52s.8,2.23,1.86,2.98c1.06.75,2.21,1.01,3.44.78s2.24-.9,3.03-2.01c.8-1.12,1.1-2.31.91-3.54ZM81.56,316.45l-3.48,4.91-2.42-1.71c-.52-.37-.87-.81-1.05-1.32-.18-.51-.1-.99.22-1.45.42-.59.97-.78,1.65-.58l.03-.04c-.29-.38-.33-.83-.11-1.35.08-.17.2-.37.34-.6s.24-.41.3-.55.07-.24.04-.3l.08-.12,1.42,1.01c.02.05,0,.14-.05.27-.05.13-.14.3-.27.52-.12.22-.22.38-.28.49-.23.43-.13.8.29,1.1l.59.42,1.22-1.73,1.46,1.03ZM78.16,318.16l-.73-.52c-.43-.31-.77-.29-1.02.05-.24.35-.15.67.29.98l.73.52.73-1.04Z"/>
  <path class="cls-1" d="M62.87,296.85c.98-.03,1.82.28,2.52.93.7.65,1.07,1.46,1.11,2.44.04.98-.27,1.83-.93,2.54-.66.71-1.48,1.08-2.46,1.12-.98.03-1.82-.28-2.52-.93-.7-.65-1.07-1.46-1.12-2.44-.04-.98.27-1.83.93-2.54.66-.71,1.48-1.08,2.46-1.12Z"/>
  <path class="cls-1" d="M56.89,283.51l-12.99,10.66-7.93-9.66,2.71-2.22,5.29,6.45,2.63-2.16-4.43-5.39,2.6-2.13,4.43,5.39,5.05-4.15,2.64,3.22Z"/>
  <path class="cls-1" d="M49.74,275l-17.26,4.57-2.43-3.52,10.39-14.53,2.48,3.6-1.93,2.53,3.34,4.84,3.04-.93,2.38,3.44ZM41.31,273.39l-2.24-3.25-2.62,3.35-1.58,1.89.03.04c.98-.35,1.76-.61,2.34-.79l4.08-1.25Z"/>
  <path class="cls-1" d="M40.01,260.89l-14.79,7.98-2.66-4.92,5.5-5.29,2.92-2.67-.02-.04c-1.83.49-3.11.82-3.82.99l-7.46,1.67-2.68-4.96,14.79-7.98,1.81,3.35-7.45,4.02-2.99,1.53.02.04c1.66-.45,2.7-.72,3.12-.8l8.8-2,1.63,3.02-6.49,6.23-2.4,2.18.02.04c1.56-.9,2.54-1.45,2.94-1.67l7.43-4,1.77,3.29Z"/>
  <path class="cls-1" d="M24.07,232.04c2.09.8,3.6,2.36,4.54,4.69.93,2.33.92,4.5-.05,6.51-.96,2.02-2.63,3.5-5,4.45-2.37.95-4.6,1.03-6.69.24-2.09-.79-3.6-2.35-4.53-4.68-.93-2.33-.92-4.5.04-6.52s2.63-3.51,5-4.46c2.37-.95,4.6-1.02,6.69-.23ZM25.46,237.97c-.49-1.22-1.33-1.97-2.51-2.25-1.18-.28-2.52-.12-4,.48-1.48.59-2.56,1.4-3.23,2.42-.67,1.02-.76,2.14-.27,3.36.48,1.21,1.32,1.96,2.52,2.24,1.2.29,2.54.14,4.02-.46,1.47-.59,2.54-1.4,3.2-2.43s.76-2.16.27-3.36Z"/>
  <path class="cls-1" d="M23.36,221.43c.63,2.18.66,4.05.09,5.61-.57,1.56-1.73,2.61-3.48,3.17l-1.16-4.02c1.49-.61,1.95-1.88,1.39-3.82-.21-.72-.52-1.3-.95-1.72-.42-.42-.92-.55-1.49-.39-.39.11-.67.37-.85.76-.17.39-.26.77-.28,1.12-.01.35,0,1.02.03,1.98,0,.05,0,.08,0,.1,0,.02,0,.04,0,.07,0,.03,0,.06.01.09.03.74.05,1.35.05,1.83s-.05,1.04-.15,1.68c-.1.64-.26,1.17-.48,1.59-.22.42-.56.83-1.01,1.21s-1,.67-1.65.85c-1.66.48-3.07.24-4.24-.7-1.17-.94-2.03-2.37-2.58-4.28-.53-1.84-.54-3.46-.03-4.87.51-1.41,1.56-2.39,3.17-2.93l1.12,3.91c-.59.25-1,.65-1.21,1.2s-.2,1.2.01,1.95c.2.69.5,1.21.9,1.56.4.35.83.46,1.28.33.51-.15.81-.51.9-1.09.09-.58.08-1.62,0-3.13-.04-.95-.05-1.74,0-2.37.04-.63.16-1.3.37-2s.56-1.29,1.07-1.75c.51-.46,1.18-.82,2.01-1.05,1.64-.47,3.11-.22,4.4.75,1.29.97,2.21,2.42,2.77,4.35Z"/>
  <path class="cls-1" d="M16.28,200.61c1.89,1.2,3.06,3.04,3.51,5.5.45,2.47,0,4.59-1.35,6.37-1.35,1.78-3.28,2.9-5.79,3.36-2.51.46-4.71.09-6.6-1.1-1.89-1.19-3.06-3.02-3.51-5.49-.45-2.47,0-4.59,1.35-6.38s3.28-2.91,5.79-3.37c2.51-.46,4.71-.08,6.6,1.12ZM16.45,206.69c-.24-1.29-.9-2.2-2.01-2.7-1.1-.51-2.44-.62-4.01-.33s-2.79.86-3.65,1.73c-.86.87-1.17,1.95-.94,3.24.23,1.28.91,2.18,2.02,2.7,1.11.52,2.46.64,4.03.35,1.56-.28,2.77-.87,3.62-1.75.86-.88,1.17-1.96.94-3.24Z"/>
  <path class="cls-1" d="M18.09,197.83l-3.92.45-.46-3.99,3.92-.45.46,3.99Z"/>
  <path class="cls-1" d="M9.51,183.53c1.14,1.01,1.76,2.31,1.86,3.89.1,1.58-.36,2.95-1.38,4.1-1.01,1.15-2.33,1.78-3.96,1.87-1.63.1-3.01-.36-4.16-1.39-1.14-1.02-1.76-2.32-1.86-3.9-.09-1.58.37-2.94,1.38-4.08,1.01-1.14,2.33-1.76,3.96-1.86,1.63-.1,3.01.36,4.16,1.37ZM9.3,190.81c.85-.92,1.23-2.03,1.15-3.33-.08-1.3-.59-2.35-1.54-3.16-.95-.81-2.11-1.17-3.49-1.08-1.36.08-2.46.58-3.31,1.5s-1.23,2.02-1.15,3.32.59,2.35,1.54,3.17c.95.81,2.11,1.18,3.47,1.1,1.38-.08,2.49-.58,3.33-1.51ZM8.79,190.07l-6,.36-.18-2.96c-.04-.64.08-1.19.37-1.65.29-.46.71-.7,1.27-.74.72-.04,1.22.26,1.49.92h.05c.11-.46.44-.77.98-.93.19-.04.41-.08.68-.11.27-.03.47-.07.62-.11.15-.04.23-.09.26-.16h.14s.1,1.73.1,1.73c-.03.05-.11.09-.24.13-.13.04-.32.08-.57.12s-.44.07-.56.09c-.48.09-.71.4-.67.91l.04.73,2.11-.13.11,1.78ZM5.33,188.49l-.05-.89c-.03-.53-.26-.79-.68-.76-.42.03-.62.3-.59.84l.05.89,1.27-.08Z"/>
  <path class="cls-1" d="M12.34,163.24c.64.74.93,1.59.86,2.54s-.47,1.75-1.2,2.4c-.74.65-1.59.94-2.56.87-.97-.07-1.77-.47-2.41-1.22-.64-.74-.93-1.59-.86-2.54.07-.95.47-1.75,1.2-2.4.74-.65,1.59-.94,2.56-.87s1.77.47,2.41,1.22Z"/>
  <path class="cls-1" d="M18.97,150.19l-16.45-3.43,2.55-12.24,3.43.72-1.71,8.17,3.34.7,1.43-6.83,3.29.69-1.43,6.83,6.4,1.33-.85,4.07Z"/>
  <path class="cls-1" d="M21.11,139.29l-14.38-10.59,1.22-4.1,17.83-1.01-1.25,4.19-3.19.08-1.68,5.63,2.63,1.79-1.2,4.01ZM17.1,131.71l1.13-3.78-4.26.05-2.46-.05v.05c.87.54,1.56.99,2.07,1.33l3.53,2.4Z"/>
  <path class="cls-1" d="M26.02,122.88l-15.47-6.55,2.18-5.15,7.57.98,3.9.6.02-.04c-1.53-1.12-2.59-1.91-3.16-2.36l-5.97-4.77,2.2-5.2,15.48,6.55-1.48,3.51-7.79-3.29-3.07-1.37-.02.04c1.39,1.01,2.25,1.66,2.58,1.93l7.07,5.62-1.34,3.16-8.92-1.17-3.2-.51-.02.04c1.68.66,2.73,1.08,3.14,1.25l7.77,3.29-1.46,3.44Z"/>
  <path class="cls-1" d="M38.53,92.42c.69,2.13.41,4.29-.82,6.47s-2.94,3.53-5.11,4.04c-2.18.51-4.38.14-6.6-1.12-2.22-1.25-3.68-2.94-4.37-5.07-.69-2.12-.42-4.28.81-6.46,1.23-2.18,2.94-3.53,5.12-4.05,2.18-.51,4.38-.15,6.61,1.11,2.22,1.25,3.68,2.95,4.37,5.08ZM34.78,97.21c.65-1.15.71-2.27.18-3.36-.52-1.1-1.48-2.04-2.87-2.82-1.39-.79-2.7-1.12-3.91-1s-2.15.75-2.79,1.89c-.64,1.13-.7,2.26-.17,3.37.52,1.11,1.48,2.06,2.87,2.85,1.38.78,2.68,1.1,3.9.97,1.22-.13,2.15-.76,2.79-1.89Z"/>
  <path class="cls-1" d="M46.38,85.2c-1.31,1.86-2.75,3.05-4.32,3.58-1.57.53-3.12.29-4.65-.73l2.41-3.42c1.41.78,2.69.34,3.85-1.31.43-.62.68-1.22.75-1.82.07-.6-.15-1.07-.63-1.41-.33-.23-.71-.3-1.12-.18s-.76.27-1.05.48c-.28.21-.79.64-1.53,1.27-.04.03-.07.05-.08.06-.02,0-.04.02-.06.04-.02.02-.05.04-.06.07-.56.49-1.02.89-1.4,1.19-.38.3-.84.61-1.41.94-.56.32-1.08.53-1.54.62-.47.09-.99.08-1.57-.03-.58-.11-1.15-.36-1.7-.75-1.41-.99-2.11-2.24-2.11-3.74,0-1.5.58-3.07,1.72-4.69,1.1-1.56,2.36-2.59,3.78-3.08,1.42-.49,2.84-.28,4.27.63l-2.34,3.32c-.57-.31-1.13-.37-1.69-.19-.56.18-1.06.59-1.51,1.23-.41.59-.63,1.15-.65,1.68-.02.53.16.93.55,1.2.44.31.91.31,1.41.02.5-.29,1.32-.95,2.43-1.96.71-.63,1.33-1.13,1.84-1.49s1.11-.69,1.79-.97c.68-.28,1.36-.37,2.04-.26s1.38.41,2.08.9c1.4.98,2.12,2.28,2.17,3.9.05,1.62-.5,3.24-1.66,4.88Z"/>
  <path class="cls-1" d="M58.18,66.6c.25,2.23-.45,4.29-2.08,6.18s-3.58,2.88-5.81,2.94-4.32-.73-6.25-2.4c-1.93-1.67-3.02-3.62-3.28-5.83-.26-2.22.44-4.28,2.08-6.17,1.64-1.9,3.58-2.88,5.82-2.95s4.32.72,6.25,2.4,3.02,3.62,3.27,5.84ZM53.55,70.55c.86-1,1.14-2.08.85-3.26-.3-1.18-1.05-2.29-2.26-3.33-1.21-1.04-2.42-1.63-3.63-1.76-1.21-.13-2.25.3-3.11,1.3-.85.98-1.13,2.07-.84,3.27.29,1.2,1.04,2.32,2.25,3.36,1.2,1.04,2.41,1.61,3.63,1.73,1.22.12,2.26-.32,3.11-1.3Z"/>
  <path class="cls-1" d="M61.48,66.26l-2.81-2.77,2.82-2.86,2.81,2.77-2.82,2.86Z"/>
  <path class="cls-1" d="M67.23,50.61c-.07,1.53-.69,2.82-1.86,3.89s-2.52,1.56-4.05,1.5-2.85-.7-3.94-1.91-1.61-2.57-1.53-4.11c.08-1.53.7-2.83,1.87-3.9s2.52-1.56,4.05-1.49c1.53.07,2.84.71,3.94,1.92,1.1,1.21,1.61,2.57,1.54,4.1ZM61.43,55.01c1.25.08,2.36-.32,3.32-1.19.96-.88,1.46-1.94,1.49-3.18.03-1.25-.42-2.38-1.35-3.4-.92-1.01-2-1.55-3.24-1.64-1.24-.09-2.35.31-3.31,1.18s-1.46,1.94-1.5,3.19c-.04,1.25.4,2.38,1.32,3.39.93,1.02,2.02,1.57,3.27,1.65ZM61.69,54.16l-4.05-4.45,2.19-1.99c.48-.43.98-.68,1.52-.74.54-.06.99.11,1.37.53.49.53.56,1.11.22,1.74l.03.04c.43-.2.88-.14,1.34.18.15.12.32.27.51.46.19.19.35.32.47.41.12.09.22.12.29.11l.09.1-1.29,1.17c-.06,0-.14-.03-.25-.1-.11-.08-.26-.2-.45-.37s-.33-.29-.42-.38c-.37-.32-.75-.3-1.13.05l-.54.49,1.42,1.56-1.32,1.2ZM60.75,50.47l.66-.6c.39-.36.45-.69.16-1.01-.29-.31-.62-.29-1.02.07l-.66.6.85.94Z"/>
  <path class="cls-1" d="M84.81,40.1c-.18.96-.66,1.72-1.44,2.26-.79.55-1.66.74-2.63.57s-1.73-.65-2.28-1.45c-.55-.8-.74-1.68-.56-2.64.18-.96.66-1.72,1.45-2.26.78-.55,1.66-.73,2.62-.57.97.17,1.73.65,2.28,1.45.55.8.74,1.68.56,2.64Z"/>
  <path class="cls-1" d="M99.1,37.12l-7.63-14.97,11.14-5.68,1.59,3.12-7.43,3.79,1.55,3.04,6.22-3.17,1.53,2.99-6.22,3.17,2.97,5.82-3.71,1.89Z"/>
  <path class="cls-1" d="M108.94,31.96l-.76-17.84,3.96-1.62,11.96,13.27-4.05,1.65-2.06-2.43-5.44,2.22.25,3.17-3.87,1.58ZM112.32,24.08l3.66-1.49-2.71-3.29-1.51-1.95-.04.02c.13,1.03.22,1.85.27,2.46l.34,4.25Z"/>
  <path class="cls-1" d="M124.82,25.49l-4.6-16.16,5.38-1.53,3.98,6.52,1.97,3.42h.04c-.08-1.91-.13-3.22-.14-3.95l-.02-7.64,5.42-1.54,4.6,16.16-3.66,1.04-2.31-8.14-.85-3.25h-.04c.08,1.73.12,2.81.11,3.23l.05,9.03-3.3.94-4.68-7.69-1.61-2.82h-.04c.54,1.73.87,2.81.99,3.25l2.31,8.12-3.59,1.02Z"/>
  <path class="cls-1" d="M156.41,16.15c-1.23,1.87-3.08,3.01-5.56,3.42-2.47.41-4.59-.08-6.35-1.45-1.76-1.38-2.85-3.33-3.26-5.85-.42-2.52-.01-4.71,1.21-6.58,1.22-1.87,3.07-3.01,5.55-3.42,2.47-.41,4.59.08,6.36,1.45,1.77,1.38,2.86,3.32,3.27,5.84.42,2.52,0,4.71-1.22,6.58ZM150.33,16.23c1.3-.21,2.21-.87,2.74-1.96.53-1.09.66-2.43.4-4.01s-.82-2.8-1.67-3.68c-.85-.88-1.93-1.21-3.22-.99-1.28.21-2.19.87-2.74,1.98-.54,1.11-.68,2.45-.42,4.02.26,1.56.82,2.78,1.69,3.65s1.94,1.2,3.22.99Z"/>
  <path class="cls-1" d="M166.95,17.75c-2.27.14-4.1-.23-5.5-1.12s-2.18-2.25-2.34-4.08l4.17-.27c.27,1.58,1.42,2.31,3.44,2.18.75-.05,1.38-.23,1.88-.56.5-.32.74-.78.7-1.38-.03-.41-.21-.74-.56-.99-.35-.25-.69-.42-1.03-.51-.34-.09-.99-.22-1.94-.39-.05-.01-.08-.02-.1-.03s-.04-.01-.07-.02c-.03,0-.06,0-.09,0-.73-.13-1.33-.24-1.8-.34-.47-.1-1.01-.27-1.61-.51s-1.09-.51-1.45-.81c-.37-.31-.69-.72-.96-1.25-.28-.52-.44-1.12-.48-1.79-.11-1.72.42-3.05,1.59-3.99s2.75-1.47,4.74-1.6c1.91-.12,3.5.22,4.76,1.02,1.27.8,1.99,2.04,2.18,3.72l-4.06.26c-.12-.64-.42-1.12-.92-1.44-.49-.32-1.13-.46-1.91-.41-.72.05-1.29.23-1.72.54-.43.32-.63.71-.6,1.18.03.53.32.9.87,1.11.55.21,1.57.43,3.06.66.94.16,1.71.33,2.32.5.61.17,1.23.44,1.88.79.64.35,1.14.83,1.48,1.42.34.6.54,1.33.6,2.19.11,1.71-.45,3.08-1.68,4.13-1.23,1.05-2.84,1.64-4.84,1.77Z"/>
  <path class="cls-1" d="M188.82,15.27c-1.58,1.59-3.62,2.34-6.12,2.26-2.5-.09-4.48-.98-5.94-2.67s-2.14-3.82-2.05-6.37c.09-2.55.92-4.62,2.48-6.22,1.57-1.59,3.6-2.34,6.11-2.26,2.5.09,4.49.98,5.95,2.67s2.15,3.82,2.06,6.37c-.09,2.55-.92,4.62-2.5,6.22ZM182.84,14.15c1.32.05,2.34-.42,3.07-1.39.73-.97,1.12-2.25,1.18-3.85.05-1.6-.25-2.91-.91-3.93s-1.65-1.56-2.97-1.61c-1.3-.05-2.32.42-3.07,1.4s-1.15,2.26-1.2,3.86c-.06,1.58.26,2.89.93,3.91.68,1.03,1.67,1.56,2.97,1.61Z"/>
  <path class="cls-1" d="M191.14,17.63l.39-3.93,4,.4-.39,3.93-4-.4Z"/>
  <path class="cls-1" d="M206.94,12.28c-1.23.9-2.63,1.23-4.2.99-1.56-.24-2.8-.98-3.71-2.22-.91-1.24-1.24-2.66-.99-4.27.25-1.61,1-2.87,2.24-3.77s2.64-1.23,4.21-.99c1.56.24,2.8.98,3.7,2.22.9,1.23,1.23,2.66.98,4.27-.25,1.61-.99,2.87-2.23,3.77ZM199.88,10.53c.72,1.02,1.72,1.63,3.01,1.83,1.28.2,2.42-.08,3.41-.84.99-.76,1.59-1.82,1.8-3.18.21-1.35-.04-2.53-.76-3.55-.71-1.02-1.71-1.63-3-1.83-1.29-.2-2.43.08-3.42.84s-1.6,1.81-1.81,3.16c-.21,1.36.04,2.56.76,3.58ZM200.7,10.19l.92-5.95,2.93.46c.63.1,1.15.34,1.53.71.39.38.54.84.45,1.4-.11.71-.52,1.13-1.22,1.26v.05c.42.21.65.59.69,1.16,0,.19,0,.42-.04.68s-.03.47-.03.63c0,.15.04.25.1.29l-.02.14-1.72-.27s-.07-.12-.08-.26,0-.33,0-.58c.02-.25.02-.44.03-.57.01-.49-.24-.77-.75-.85l-.72-.11-.32,2.09-1.77-.27ZM202.98,7.15l.88.14c.53.08.82-.09.89-.5.07-.42-.17-.67-.69-.75l-.88-.14-.2,1.25Z"/>
  <path class="cls-1" d="M226.17,19.4c-.86.46-1.75.56-2.67.29s-1.61-.83-2.09-1.69c-.47-.86-.58-1.75-.3-2.68.27-.93.84-1.63,1.71-2.09s1.75-.56,2.67-.29,1.61.83,2.09,1.69c.47.86.57,1.75.3,2.69-.27.93-.84,1.63-1.71,2.09Z"/>
</svg>