<?xml version="1.0" encoding="UTF-8"?>
<svg id="Camada_1" data-name="Camada 1" xmlns="http://www.w3.org/2000/svg" viewBox="0 0 553.02 647.67">
  <defs>
    <style>
      .cls-1 {
        fill: #ededed;
      }
    </style>
  </defs>
  <path class="cls-1" d="M2.38,189.47V0h140.97v39.48H49.29v38.42h78.7v37.89H49.29v73.67H2.38Z"/>
  <path class="cls-1" d="M131.43,189.47L199.54,0h48.23l68.37,189.47h-49.29l-11.13-34.18h-66.25l-10.86,34.18h-47.17ZM200.33,121.63h44.52l-14.31-45.84-7.42-26.76h-.53c-3.01,11.31-5.56,20.23-7.68,26.76l-14.58,45.84Z"/>
  <path class="cls-1" d="M0,414.07v-189.47h63.07l23.05,82.94,10.87,43.19h.53c4.94-20.84,8.48-35.24,10.6-43.19l23.32-82.94h63.6v189.47h-42.93v-95.4l.79-37.89h-.53c-4.42,18.91-7.33,30.65-8.74,35.24l-27.29,98.04h-38.69l-27.03-97.78-8.74-35.51h-.53c.53,20.32.79,33.04.79,38.16v95.13H0Z"/>
  <path class="cls-1" d="M374.96,390.75c-17.14,18.55-39.84,27.82-68.1,27.82s-50.92-9.27-67.97-27.82c-17.05-18.55-25.57-42.22-25.57-71.02s8.52-52.47,25.57-71.02c17.05-18.55,39.7-27.82,67.97-27.82s50.97,9.27,68.1,27.82c17.13,18.55,25.7,42.23,25.7,71.02s-8.57,52.47-25.7,71.02ZM307.12,380.41c14.84,0,26.19-5.61,34.05-16.83,7.86-11.22,11.79-25.84,11.79-43.86s-3.93-32.68-11.79-43.99c-7.86-11.3-19.21-16.96-34.05-16.96s-26.01,5.66-34.05,16.96c-8.04,11.31-12.06,25.97-12.06,43.99s4.02,32.42,12.06,43.72c8.04,11.31,19.39,16.96,34.05,16.96Z"/>
  <path class="cls-1" d="M84.53,647.67c-25.62,0-45.98-5.52-61.08-16.56-15.1-11.04-22.92-26.9-23.45-47.57h47.17c1.94,18.02,14.31,27.03,37.1,27.03,8.48,0,15.68-1.63,21.6-4.9,5.92-3.27,8.88-8.26,8.88-14.97,0-4.59-1.85-8.43-5.56-11.53-3.71-3.09-7.47-5.25-11.26-6.49-3.8-1.23-11-3.18-21.6-5.83-.53-.17-.89-.31-1.06-.4-.18-.09-.44-.17-.79-.26-.36-.09-.71-.13-1.06-.13-8.13-1.94-14.8-3.66-20.01-5.17-5.21-1.5-11.13-3.8-17.75-6.89-6.62-3.09-11.88-6.49-15.77-10.2-3.89-3.71-7.2-8.61-9.94-14.71-2.74-6.1-4.11-12.94-4.11-20.54,0-19.43,6.93-34.01,20.8-43.72,13.87-9.71,32.02-14.57,54.46-14.57s39.17,4.95,52.86,14.84c13.69,9.89,20.98,24.38,21.86,43.46h-45.84c-.89-7.24-3.97-12.85-9.28-16.83-5.3-3.97-12.37-5.96-21.2-5.96-8.13,0-14.71,1.63-19.74,4.9-5.04,3.27-7.55,7.55-7.55,12.85,0,6.01,3,10.38,9.01,13.12,6,2.74,17.31,5.96,33.92,9.67,10.42,2.48,18.99,4.9,25.7,7.29,6.71,2.38,13.56,5.79,20.54,10.2,6.98,4.42,12.19,10.11,15.64,17.09,3.44,6.98,5.17,15.33,5.17,25.04,0,19.26-7.29,34.36-21.86,45.31-14.57,10.96-33.17,16.43-55.78,16.43Z"/>
  <path class="cls-1" d="M335.21,619.85c-17.14,18.55-39.84,27.82-68.1,27.82s-50.92-9.27-67.97-27.82c-17.05-18.55-25.57-42.22-25.57-71.02s8.52-52.47,25.57-71.02c17.05-18.55,39.7-27.82,67.97-27.82s50.97,9.27,68.1,27.82c17.13,18.55,25.7,42.23,25.7,71.02s-8.57,52.47-25.7,71.02ZM267.37,609.52c14.84,0,26.19-5.61,34.05-16.83,7.86-11.22,11.79-25.84,11.79-43.86s-3.93-32.68-11.79-43.99c-7.86-11.3-19.21-16.96-34.05-16.96s-26.01,5.66-34.05,16.96c-8.04,11.31-12.06,25.97-12.06,43.99s4.02,32.42,12.06,43.72c8.04,11.31,19.39,16.96,34.05,16.96Z"/>
  <path class="cls-1" d="M365.42,643.17v-44.52h45.31v44.52h-45.31Z"/>
  <path class="cls-1" d="M534.74,560.23c-12.19,12.19-27.21,18.28-45.05,18.28s-32.9-6.1-45.18-18.28c-12.28-12.19-18.42-27.47-18.42-45.84s6.14-33.65,18.42-45.84c12.28-12.19,27.34-18.28,45.18-18.28s32.86,6.09,45.05,18.28c12.19,12.19,18.28,27.47,18.28,45.84s-6.09,33.65-18.28,45.84ZM452.99,552.94c9.8,10.16,22.04,15.24,36.7,15.24s26.85-5.08,36.57-15.24c9.71-10.16,14.58-23.01,14.58-38.55s-4.86-28.13-14.58-38.29c-9.72-10.16-21.91-15.24-36.57-15.24s-26.9,5.08-36.7,15.24c-9.81,10.16-14.71,22.92-14.71,38.29s4.9,28.4,14.71,38.55ZM461.6,547.77v-67.84h33.39c7.24,0,13.34,1.77,18.28,5.3,4.94,3.54,7.42,8.48,7.42,14.84,0,8.13-3.8,13.52-11.39,16.17v.53c5.12,1.59,8.39,5.48,9.8,11.66.35,2.12.62,4.68.79,7.68.17,3.01.44,5.35.79,7.02.35,1.68.88,2.7,1.59,3.05v1.59h-19.61c-.53-.35-.97-1.28-1.32-2.78-.36-1.5-.66-3.66-.93-6.49-.26-2.82-.49-4.94-.66-6.36-.71-5.47-3.98-8.21-9.81-8.21h-8.21v23.85h-20.14ZM481.74,509.88h10.07c6,0,9.01-2.38,9.01-7.15s-3.01-7.15-9.01-7.15h-10.07v14.31Z"/>
</svg>