<?xml version="1.0" encoding="UTF-8"?>
<svg id="Camada_1" data-name="Camada 1" xmlns="http://www.w3.org/2000/svg" viewBox="0 0 436.95 436.95">
  <defs>
    <style>
      .cls-1 {
        fill: #ededed;
      }
    </style>
  </defs>
  <g>
    <path class="cls-1" d="M105.97,312.11V124.83h139.36v39.02h-92.99v37.99h77.79v37.46h-77.79v72.81h-46.37Z"/>
    <path class="cls-1" d="M321.68,180.76c-6.2,6.2-13.84,9.3-22.92,9.3s-16.73-3.09-22.98-9.3c-6.25-6.2-9.36-13.97-9.36-23.31s3.13-17.11,9.36-23.31c6.25-6.2,13.91-9.3,22.98-9.3s16.71,3.09,22.92,9.3c6.2,6.2,9.3,13.97,9.3,23.31s-3.09,17.11-9.3,23.31ZM280.11,177.04c4.99,5.17,11.21,7.75,18.66,7.75s13.65-2.58,18.59-7.75,7.42-11.71,7.42-19.6-2.47-14.3-7.42-19.47c-4.94-5.17-11.15-7.75-18.59-7.75s-13.68,2.58-18.66,7.75c-4.99,5.17-7.48,11.66-7.48,19.47s2.49,14.45,7.48,19.6ZM284.49,174.43v-34.49h16.98c3.68,0,6.78.89,9.3,2.7,2.52,1.8,3.78,4.31,3.78,7.54,0,4.13-1.93,6.87-5.79,8.23v.27c2.6.81,4.26,2.79,4.99,5.93.18,1.08.32,2.38.4,3.91.1,1.53.22,2.71.4,3.57.18.86.45,1.37.81,1.55v.81h-9.97c-.27-.18-.49-.65-.67-1.42s-.33-1.87-.48-3.3c-.13-1.44-.26-2.52-.33-3.24-.37-2.79-2.03-4.18-4.99-4.18h-4.18v12.14h-10.24l-.02-.02ZM294.73,155.15h5.12c3.05,0,4.58-1.21,4.58-3.64s-1.53-3.64-4.58-3.64h-5.12v7.27Z"/>
  </g>
  <path class="cls-1" d="M218.47,31.48c49.95,0,96.91,19.46,132.23,54.78,35.32,35.32,54.78,82.27,54.78,132.23s-19.46,96.91-54.78,132.23-82.27,54.78-132.23,54.78-96.91-19.46-132.23-54.78c-35.32-35.32-54.78-82.27-54.78-132.23s19.46-96.91,54.78-132.23c35.32-35.32,82.27-54.78,132.23-54.78M218.47,0C97.82,0,0,97.82,0,218.47s97.82,218.47,218.47,218.47,218.47-97.82,218.47-218.47S339.13,0,218.47,0h0Z"/>
</svg>