<?xml version="1.0" encoding="UTF-8"?>
<svg id="Camada_1" data-name="Camada 1" xmlns="http://www.w3.org/2000/svg" viewBox="0 0 1202.69 184.31">
  <defs>
    <style>
      .cls-1 {
        fill: #ededed;
      }
    </style>
  </defs>
  <path class="cls-1" d="M0,180.11V3.46h131.44v36.81H43.73v35.82h73.38v35.33H43.73v68.68H0Z"/>
  <path class="cls-1" d="M120.32,180.11L183.82,3.46h44.97l63.74,176.65h-45.95l-10.38-31.87h-61.77l-10.13,31.87h-43.98ZM184.56,116.86h41.51l-13.34-42.74-6.92-24.95h-.49c-2.8,10.54-5.19,18.86-7.16,24.95l-13.59,42.74Z"/>
  <path class="cls-1" d="M304.87,180.11V3.46h58.8l21.49,77.33,10.13,40.27h.49c4.61-19.43,7.91-32.86,9.88-40.27L427.42,3.46h59.29v176.65h-40.03v-88.94l.74-35.33h-.49c-4.12,17.63-6.84,28.58-8.15,32.86l-25.45,91.41h-36.07l-25.2-91.17-8.15-33.11h-.49c.49,18.94.74,30.8.74,35.58v88.7h-39.28Z"/>
  <path class="cls-1" d="M654.47,158.37c-15.98,17.3-37.14,25.94-63.49,25.94s-47.48-8.65-63.37-25.94c-15.9-17.3-23.84-39.36-23.84-66.21s7.95-48.92,23.84-66.21c15.89-17.29,37.02-25.94,63.37-25.94s47.52,8.65,63.49,25.94c15.98,17.3,23.97,39.37,23.97,66.21s-7.99,48.92-23.97,66.21ZM591.22,148.73c13.84,0,24.42-5.23,31.75-15.69,7.33-10.46,10.99-24.09,10.99-40.89s-3.67-30.47-10.99-41.01c-7.33-10.54-17.91-15.81-31.75-15.81s-24.25,5.27-31.75,15.81c-7.5,10.54-11.24,24.21-11.24,41.01s3.74,30.23,11.24,40.76c7.49,10.54,18.07,15.81,31.75,15.81Z"/>
  <path class="cls-1" d="M765.89,184.31c-23.88,0-42.87-5.15-56.95-15.44-14.08-10.29-21.37-25.08-21.86-44.35h43.98c1.81,16.8,13.34,25.2,34.59,25.2,7.91,0,14.62-1.52,20.14-4.57,5.52-3.05,8.28-7.7,8.28-13.96,0-4.28-1.73-7.86-5.19-10.75-3.46-2.88-6.96-4.9-10.5-6.05-3.54-1.15-10.25-2.96-20.14-5.44-.49-.16-.83-.28-.99-.37-.17-.08-.41-.16-.74-.25-.33-.08-.66-.12-.99-.12-7.58-1.81-13.8-3.42-18.65-4.82-4.86-1.4-10.38-3.54-16.55-6.43-6.18-2.88-11.08-6.05-14.7-9.51-3.62-3.46-6.71-8.03-9.27-13.71-2.56-5.68-3.83-12.06-3.83-19.15,0-18.12,6.46-31.7,19.39-40.76,12.93-9.06,29.85-13.59,50.77-13.59s36.52,4.61,49.29,13.83c12.76,9.23,19.56,22.73,20.38,40.52h-42.74c-.83-6.75-3.71-11.98-8.65-15.69-4.94-3.71-11.53-5.56-19.76-5.56-7.58,0-13.71,1.52-18.41,4.57-4.7,3.05-7.04,7.04-7.04,11.98,0,5.6,2.8,9.68,8.4,12.23,5.6,2.56,16.14,5.56,31.62,9.02,9.72,2.31,17.7,4.57,23.97,6.79,6.26,2.22,12.64,5.4,19.15,9.51,6.5,4.12,11.37,9.43,14.58,15.94,3.21,6.51,4.82,14.29,4.82,23.35,0,17.96-6.79,32.04-20.38,42.25-13.59,10.22-30.92,15.32-52.01,15.32Z"/>
  <path class="cls-1" d="M999.61,158.37c-15.98,17.3-37.14,25.94-63.49,25.94s-47.48-8.65-63.37-25.94c-15.9-17.3-23.84-39.36-23.84-66.21s7.95-48.92,23.84-66.21c15.89-17.29,37.02-25.94,63.37-25.94s47.52,8.65,63.49,25.94c15.98,17.3,23.97,39.37,23.97,66.21s-7.99,48.92-23.97,66.21ZM936.36,148.73c13.84,0,24.42-5.23,31.75-15.69,7.33-10.46,10.99-24.09,10.99-40.89s-3.67-30.47-10.99-41.01c-7.33-10.54-17.91-15.81-31.75-15.81s-24.25,5.27-31.75,15.81c-7.5,10.54-11.24,24.21-11.24,41.01s3.74,30.23,11.24,40.76c7.49,10.54,18.07,15.81,31.75,15.81Z"/>
  <path class="cls-1" d="M1027.78,180.11v-41.51h42.25v41.51h-42.25Z"/>
  <path class="cls-1" d="M1185.65,102.78c-11.37,11.36-25.37,17.05-42,17.05s-30.68-5.68-42.12-17.05c-11.45-11.36-17.17-25.61-17.17-42.74s5.72-31.38,17.17-42.74c11.45-11.36,25.49-17.05,42.12-17.05s30.64,5.68,42,17.05c11.36,11.37,17.05,25.61,17.05,42.74s-5.68,31.38-17.05,42.74ZM1109.43,95.98c9.14,9.47,20.54,14.21,34.22,14.21s25.03-4.73,34.09-14.21c9.06-9.47,13.59-21.45,13.59-35.95s-4.53-26.23-13.59-35.7c-9.06-9.47-20.42-14.21-34.09-14.21s-25.08,4.74-34.22,14.21c-9.14,9.47-13.71,21.37-13.71,35.7s4.57,26.48,13.71,35.95ZM1117.46,91.17V27.92h31.13c6.75,0,12.44,1.65,17.05,4.94,4.61,3.3,6.92,7.91,6.92,13.83,0,7.58-3.54,12.6-10.62,15.07v.49c4.78,1.48,7.82,5.11,9.14,10.87.33,1.98.58,4.37.74,7.16.16,2.8.41,4.98.74,6.55.33,1.57.82,2.51,1.48,2.84v1.48h-18.28c-.49-.33-.91-1.19-1.24-2.59-.33-1.4-.62-3.42-.87-6.05-.25-2.63-.45-4.61-.62-5.93-.66-5.1-3.71-7.66-9.14-7.66h-7.66v22.24h-18.78ZM1136.24,55.83h9.39c5.6,0,8.4-2.22,8.4-6.67s-2.8-6.67-8.4-6.67h-9.39v13.34Z"/>
</svg>